PathFileType	4	(X/Y/Z)	T1_P1_Vision_NoMovement_4_0-684.trc
DataRate	CameraRate	NumFrames	NumMarkers	Units	OrigDataRate	OrigDataStartFrame	OrigNumFrames
60	60	4	27	m	60	342	684
Frame#	Time	RHip			RKnee			RAnkle			RBigToe			RSmallToe			RHeel			LHip			LKnee			LAnkle			LBigToe			LSmallToe			LHeel			Neck			Head			Nose			RShoulder			RElbow			RWrist			RThumb			RIndex			RPinky			LShoulder			LElbow			LWrist			LThumb			LIndex			LPinky		
		X1	Y1	Z1	X2	Y2	Z2	X3	Y3	Z3	X4	Y4	Z4	X5	Y5	Z5	X6	Y6	Z6	X7	Y7	Z7	X8	Y8	Z8	X9	Y9	Z9	X10	Y10	Z10	X11	Y11	Z11	X12	Y12	Z12	X13	Y13	Z13	X14	Y14	Z14	X15	Y15	Z15	X16	Y16	Z16	X17	Y17	Z17	X18	Y18	Z18	X19	Y19	Z19	X20	Y20	Z20	X21	Y21	Z21	X22	Y22	Z22	X23	Y23	Z23	X24	Y24	Z24	X25	Y25	Z25	X26	Y26	Z26	X27	Y27	Z27
343	5.716666666666667	-66.90916442837225	3768.907863760848	-530.8847206463372	287.35191265845594	3948.627975212163	-517.3913042439458	643.9777605153977	4148.5622926100905	-529.9756901814925	700.4485498392409	4042.756444993389	-458.03911982998466	686.4916953251637	3964.3812959709257	-487.83388305252925	678.5519398377774	4176.348413070048	-531.7572024653841	-102.37826299876569	3885.64651708047	-349.3630906830362	237.53638522403426	3981.190589629439	-356.25723323995595	619.5704612803037	4250.617403679456	-455.2192663260165	664.9524387553552	3994.600831427956	-344.2047349083984	668.9127143259602	4127.6820631703795	-344.09139545063323	669.5097784376724	4321.603295672655	-499.2182315382446	-662.2585244288679	3666.7511436149653	-498.9035378585293	-907.3540320296844	3541.674681440061	-437.43804665710115	-772.607039092418	3554.120618474455	-403.15382246379664	-554.0484005070816	3659.5522104946367	-656.1820319404019	-270.6185867403618	3654.7454399338408	-674.7962363603536	-22.256812888504488	3625.3425244180803	-593.2328175416139	86.0840960291285	3758.3586214399866	-559.8851124664959	116.19018699397033	3747.887636280886	-562.0474844611074	104.27428349542737	3669.290029168505	-572.780494540995	-610.1024731642652	3755.9463383342763	-357.755619837593	-390.07384519115453	3982.3027533811874	-346.1677174356039	-127.04445023478965	3936.0778403035893	-239.6707481623966	5.215541998319313	3830.5210383620865	-240.33443345311213	23.78118941109454	3867.2627187542676	-200.84895271614334	2.667163583437402	3978.8975937955965	-217.24219252165892
344	5.733333333333333	-66.83652984437002	3770.8289873094354	-532.3614345388546	287.00937748594754	3948.420031049665	-517.4109480797255	644.3715863247313	4146.411444163334	-529.4219017113302	701.7355741796765	4046.3751397657893	-457.9740267321791	686.9873709194167	3964.889958621606	-489.3598337973952	678.4378455838809	4172.322499879965	-528.7210760119359	-102.32042639847208	3885.7460850275447	-349.5833331664623	236.36304349851227	3977.9774212138946	-355.69308990645305	620.4193525863232	4253.370273503493	-456.89783151578524	666.0071598544904	3997.5762581868003	-344.86081044137114	668.911678931907	4126.53188861202	-343.99732412759465	671.2453577609407	4322.652979701607	-499.6945842610694	-663.0554037233883	3666.2167295974805	-498.69565605798624	-908.0488806603562	3541.231445433115	-437.30610509931154	-773.1466519225395	3553.6916448240895	-403.0300746315176	-553.98696869717	3658.781642378544	-655.5220268846512	-270.91325296966755	3658.256947960684	-676.6048047667919	-22.26131187380728	3625.3702548434153	-593.2417357211092	86.34160113191155	3761.0766690647583	-562.0089604524063	116.3692381553445	3747.9450148469823	-562.0481782379845	104.22811966429947	3665.9433785683964	-572.5460949419572	-610.1280425763039	3755.907135516475	-357.73046696322115	-391.4751055446685	3981.839916768523	-346.3602992504457	-127.60096953728903	3934.6848183193883	-238.91069625059822	3.959032519745674	3829.4837802132356	-239.80911989352413	24.836351535556542	3857.905209159262	-199.21814357003865	2.4661251065068206	3978.569914777232	-217.0467408438173
345	5.75	-66.72015590286377	3774.119263226333	-534.8753848337218	285.9644037170477	3947.688689446558	-518.6021809498826	644.9953741034567	4149.378522081736	-530.1767629021044	703.1059775362636	4047.6384070530803	-459.50327065791413	688.7016517735997	3968.168353820105	-493.62477568680856	679.8304446690212	4173.374330860482	-527.6339817869234	-102.4040836375217	3885.685503148609	-348.9285744900384	234.49946970050144	3973.115604501429	-354.85197100981725	622.0511465414968	4257.687551956581	-459.55214860762976	667.0185489047487	3998.1700153279835	-345.97425146409506	669.9170347581742	4125.215127640006	-344.1277870935594	673.6581360876852	4322.935373754487	-499.59619235170493	-663.8553567803665	3665.693328006654	-498.50477987917276	-908.4804705641727	3540.950496589181	-437.22482564786014	-773.2007261976835	3553.5839886282492	-403.0228289496197	-553.8241532574989	3657.025883479867	-654.0532574723971	-271.8477194014563	3664.771434596631	-679.9676937780142	-22.251938381930167	3625.448700643072	-593.2840557795638	86.34704791413004	3760.765798377013	-561.7306363827669	117.80881335649043	3748.5499316173837	-561.9784207124928	104.33209415187739	3663.9266485239305	-573.4669270468393	-610.1294361907351	3755.8967143294367	-357.742935618259	-392.250447676779	3981.624746237647	-346.47905539789997	-128.378633273461	3932.783873413525	-237.87905219826632	3.403320669714916	3828.8570156130663	-239.44778875926582	25.29521569550909	3850.79326876064	-198.0186326051179	2.586896841345582	3978.533645308087	-217.02404432142717
346	5.766666666666667	-66.59546331933227	3777.6865208363934	-537.5832454995679	284.8952318573488	3946.861411486071	-519.7545798563214	645.5211898411626	4154.015698995974	-531.1894900290571	704.2302789218727	4046.2706359761937	-461.8165339866711	690.7174416300231	3972.516339851074	-497.73633428057167	681.0903959271285	4175.031436791264	-527.4360645004153	-102.6629061714883	3885.491606363509	-348.2858128186587	233.92036613279492	3971.0786148984316	-354.5607708664476	623.5163045369989	4260.363060253326	-461.2155698222752	668.5948284750144	3998.2242092850347	-347.46528231212193	672.809564867457	4128.212894765231	-345.12094432570996	675.5072419674503	4321.791850680055	-499.04097868947395	-664.5525023195939	3665.231522574737	-498.3446877190887	-908.5865085453675	3540.876500967438	-437.1931664979093	-773.104014456141	3553.639036642103	-403.0704231088948	-553.5893157296913	3654.547462744576	-651.9923875573825	-273.4751477674697	3668.4175402777573	-681.9074882487432	-22.248059448686785	3625.5381279687845	-593.338805991468	86.02866545978053	3756.7957057314948	-558.5670713916695	119.32216264156823	3749.267836842341	-561.9480045053823	104.55846848199906	3665.091319479411	-575.4559494281041	-610.1110653722859	3755.8892073424277	-357.78587798049244	-392.31376429352355	3981.6310039756113	-346.49217207036605	-128.80463510311046	3933.8840852857397	-238.74432182769007	3.320208224563807	3828.61425634758	-239.23497312990503	25.249723352024702	3847.8100716549843	-197.50286657847684	1.7816953487050746	3978.1231558572345	-217.129535308041
